<?xml version="1.0" encoding="utf-8" standalone="yes"?>
<!DOCTYPE svg PUBLIC "-//W3C//DTD SVG 1.1//EN" "http://www.w3.org/Graphics/SVG/1.1/DTD/svg11.dtd">
<svg width="615" height="590" viewBox="0 0 615 590" style="fill:none;stroke:none;fill-rule:evenodd;clip-rule:evenodd;stroke-linecap:round;stroke-linejoin:round;stroke-miterlimit:1.5;" version="1.1" xmlns="http://www.w3.org/2000/svg" xmlns:xlink="http://www.w3.org/1999/xlink"><style id="fontImports">@import url("https://fonts.googleapis.com/css2?family=Roboto:wght@400;700&amp;display=block");</style><rect id="" x="0" y="0" width="614.112" height="590" style="fill: #ffffff;"></rect><g id="items" style="isolation: isolate"><g id="blend" style="mix-blend-mode: normal"><g id="g-root-tf_qnt7pgkuisjs-fill" data-item-order="-359922" transform="translate(-9, -9)"><g id="tf_qnt7pgkuisjs-fill" stroke="none" fill="#ffffff"><g><path d="M 9.99603 10L 622.10603 10L 622.10603 598L 9.99603 598Z"></path></g></g></g><g id="g-root-4.cu_sy_59c90kuu13i-fill" data-item-order="-108858" transform="translate(124.10736083984375, 386.2734375)"><g id="4.cu_sy_59c90kuu13i-fill" stroke="none" fill="#fffbda"><g><path d="M 20.668594 82.726318C 17.991699 57.615509 14.464699 33.297303 10 10L 10.2621 10.848115C 13.049797 17.539307 32.866699 22.726197 56.898895 22.726197C 80.845703 22.726197 100.607101 17.575988 103.505295 10.919403L 103.765198 10.105804C 99.310104 33.37091 95.789795 57.653504 93.116897 82.726318C 93.116897 89.353699 76.898804 94.726318 56.8927 94.726318C 36.886688 94.726318 20.668594 89.353699 20.668594 82.726318Z"></path></g></g></g><g id="g-root-4.line_sy_59c90kuu13j-fill" data-item-order="-108853" transform="translate(211, 429)"></g><g id="g-root-3.cu_sy_1ur6d6skutyiw-fill" data-item-order="-108850" transform="translate(105.70059204101562, 312.92578125)"><g id="3.cu_sy_1ur6d6skutyiw-fill" stroke="none" fill="#f4ffdc"><g><path d="M 28.406998 83.347504C 23.46199 57.542389 17.365997 32.989807 10 10L 10.276993 10.859406C 13.931992 18.34729 41.887787 24.073487 75.421997 24.073487C 108.741287 24.073487 136.362793 18.346192 140.297897 10.927704L 140.524994 10.2305C 133.182587 33.185303 127.104492 57.695709 122.172089 83.453308L 121.911987 84.266999C 119.013886 90.923706 99.252396 96.073914 75.305603 96.073914C 51.273392 96.073914 31.456993 90.886902 28.668991 84.195801L 28.406998 83.347504Z"></path></g></g></g><g id="g-root-3.line_sy_1ur6d6skutyix-fill" data-item-order="-108845" transform="translate(226, 351)"></g><g id="g-root-2.cu_sy_1qbcv2ckutzb6-fill" data-item-order="-108842" transform="translate(74.96014404296875, 240.01953125)"><g id="2.cu_sy_1qbcv2ckutzb6-fill" stroke="none" fill="#e3fff2"><g><path d="M 40.741104 82.905884C 32.244095 56.385803 22.058106 31.945297 10.000092 10.060807L 10.317093 10.628495C 16.210098 18.774094 56.941101 24.979706 106.107697 24.979706C 155.154602 24.979706 195.717102 18.729492 201.764313 10.612702L 202.113098 10C 190.005203 31.963394 179.784302 56.502808 171.265198 83.136414L 171.038391 83.833985C 167.103195 91.252503 139.481689 96.979798 106.162399 96.979798C 72.628098 96.979798 44.672104 91.25351 41.018097 83.765595L 40.741104 82.905884Z"></path></g></g></g><g id="g-root-2.line_sy_1qbcv2ckutzb7-fill" data-item-order="-108837" transform="translate(249, 279)"></g><g id="g-root-1.cu_sy_1hfputgkuu03w-fill" data-item-order="-108834" transform="translate(15, 147)"><g id="1.cu_sy_1hfputgkuu03w-fill" stroke="none" fill="#e8f9ff"><g><path d="M 319.854095 30.992401C 321.265503 30.019196 322 29.019501 322 28C 322 18.058899 252.156403 10 166 10C 79.843994 10 10 18.058899 10 28C 10 28.861206 10.523987 29.708405 11.537994 30.537308L 12.143005 30.990097L 12.143005 30.990799C 34.942993 49.859894 54.075989 74.252502 69.960007 103.0802L 70.276993 103.64801C 76.169998 111.794006 116.901001 117.998993 166.067993 117.998993C 215.11499 117.998993 255.677002 111.748993 261.724213 103.632202L 262.072998 103.019409C 277.94989 74.218994 297.071198 49.847992 319.854095 30.992401Z"></path></g></g></g><g id="g-root-1.line_sy_1czwcp0kuu0w5-fill" data-item-order="-108829" transform="translate(289, 207)"></g><g id="g-root-tx_transfor_13z9q2skuiqyv-fill" data-item-order="0" transform="translate(111, 39)"><g id="tx_transfor_13z9q2skuiqyv-fill" stroke="none" fill="#484848"><g><text style="font: bold 20px Roboto, sans-serif; white-space: pre;" font-weight="bold" font-size="20px" font-family="Roboto, sans-serif"><tspan x="16.29" y="33.5" dominant-baseline="ideographic">Transforming YouTube Lectures into Study Notes</tspan></text></g></g></g><g id="g-root-tx_youtubev_13z9q2skuiqyu-fill" data-item-order="0" transform="translate(45, 99)"><g id="tx_youtubev_13z9q2skuiqyu-fill" stroke="none" fill="#484848"><g><text style="font: 20px Roboto, sans-serif; white-space: pre;" font-size="20px" font-family="Roboto, sans-serif"><tspan x="17" y="33.5" dominant-baseline="ideographic">YouTube Video Transcripts</tspan></text></g></g></g><g id="g-root-1_9pvokuiqdk-fill" data-item-order="0" transform="translate(147.224365234375, 195.111328125)"></g><g id="g-root-tx_extractt_18f3878kuiq6l-fill" data-item-order="0" transform="translate(375, 195)"><g id="tx_extractt_18f3878kuiq6l-fill" stroke="none" fill="#484848"><g><text style="font: 20px Roboto, sans-serif; white-space: pre;" font-size="20px" font-family="Roboto, sans-serif"><tspan x="12" y="33.5" dominant-baseline="ideographic">Extract Transcripts</tspan></text></g></g></g><g id="g-root-flip_1q7m6v8kuejgi-fill" data-item-order="0" transform="translate(147.224365234375, 267.111328125)"></g><g id="g-root-tx_summariz_18f3878kuiq6k-fill" data-item-order="0" transform="translate(375.112060546875, 267)"><g id="tx_summariz_18f3878kuiq6k-fill" stroke="none" fill="#484848"><g><text style="font: 20px Roboto, sans-serif; white-space: pre;" font-size="20px" font-family="Roboto, sans-serif"><tspan x="12" y="33.5" dominant-baseline="ideographic">Summarize Content</tspan></text></g></g></g><g id="g-root-chec_1usfeiskuwsni-fill" data-item-order="0" transform="translate(147.224365234375, 339.111328125)"></g><g id="g-root-tx_createst_1ha3rd0kuisjn-fill" data-item-order="0" transform="translate(375.112060546875, 339)"><g id="tx_createst_1ha3rd0kuisjn-fill" stroke="none" fill="#484848"><g><text style="font: 20px Roboto, sans-serif; white-space: pre;" font-size="20px" font-family="Roboto, sans-serif"><tspan x="12" y="33.5" dominant-baseline="ideographic">Create Study Notes</tspan></text></g></g></g><g id="g-root-1_1lyntj8kusjk4-fill" data-item-order="0" transform="translate(147.224365234375, 411.111328125)"></g><g id="g-root-tx_convertt_1lpx9hgkuirre-fill" data-item-order="0" transform="translate(375.112060546875, 411)"><g id="tx_convertt_1lpx9hgkuirre-fill" stroke="none" fill="#484848"><g><text style="font: 20px Roboto, sans-serif; white-space: pre;" font-size="20px" font-family="Roboto, sans-serif"><tspan x="12" y="33.5" dominant-baseline="ideographic">Convert to Markdown</tspan></text></g></g></g><g id="g-root-tx_userfrie_1ulk9qckuiqyp-fill" data-item-order="0" transform="translate(57, 483)"><g id="tx_userfrie_1ulk9qckuiqyp-fill" stroke="none" fill="#484848"><g><text style="font: 20px Roboto, sans-serif; white-space: pre;" font-size="20px" font-family="Roboto, sans-serif"><tspan x="14.24" y="33.5" dominant-baseline="ideographic">User-Friendly Markdown </tspan><tspan x="100.69" y="57.5" dominant-baseline="ideographic">Files</tspan></text></g></g></g><g id="g-root-tf_qnt7pgkuisjs-stroke" data-item-order="-359922" transform="translate(-9, -9)"></g><g id="g-root-4.cu_sy_59c90kuu13i-stroke" data-item-order="-108858" transform="translate(124.10736083984375, 386.2734375)"><g id="4.cu_sy_59c90kuu13i-stroke" fill="none" stroke-linecap="round" stroke-linejoin="round" stroke-miterlimit="4" stroke="#e0cb15" stroke-width="2"><g><path d="M 10 10C 14.464699 33.297303 17.991699 57.615509 20.668594 82.726318C 20.668594 89.353699 36.886688 94.726318 56.8927 94.726318C 76.898804 94.726318 93.116897 89.353699 93.116897 82.726318C 95.789795 57.653504 99.310104 33.37091 103.765198 10.105804L 103.505295 10.919403C 100.607101 17.575988 80.845703 22.726197 56.898895 22.726197C 32.866699 22.726197 13.049797 17.539307 10.2621 10.848115L 10 10Z"></path></g></g></g><g id="g-root-4.line_sy_59c90kuu13j-stroke" data-item-order="-108853" transform="translate(211, 429)"><g id="4.line_sy_59c90kuu13j-stroke" fill="none" stroke-linecap="round" stroke-linejoin="round" stroke-miterlimit="4" stroke="#969696" stroke-width="2"><g><path d="M 150 10L 12 10"></path><path d="M 18 3.5L 11.5 10L 18 16.5" stroke-dasharray="none"></path></g></g></g><g id="g-root-3.cu_sy_1ur6d6skutyiw-stroke" data-item-order="-108850" transform="translate(105.70059204101562, 312.92578125)"><g id="3.cu_sy_1ur6d6skutyiw-stroke" fill="none" stroke-linecap="round" stroke-linejoin="round" stroke-miterlimit="4" stroke="#92bd39" stroke-width="2"><g><path d="M 10.000488 10C 17.365791 32.989807 23.461594 57.542389 28.406891 83.347504L 28.668892 84.195801C 31.456497 90.886902 51.273392 96.073914 75.305603 96.073914C 99.252396 96.073914 119.013886 90.923706 121.911987 84.266999L 122.172089 83.453308C 127.104492 57.695709 133.182587 33.185303 140.524994 10.2305L 140.297897 10.927704C 136.362793 18.346192 108.741287 24.073487 75.421997 24.073487C 41.887787 24.073487 13.931595 18.34729 10.27739 10.859406L 10.000488 10Z"></path></g></g></g><g id="g-root-3.line_sy_1ur6d6skutyix-stroke" data-item-order="-108845" transform="translate(226, 351)"><g id="3.line_sy_1ur6d6skutyix-stroke" fill="none" stroke-linecap="round" stroke-linejoin="round" stroke-miterlimit="4" stroke="#969696" stroke-width="2"><g><path d="M 135 10L 12 10"></path><path d="M 18 3.5L 11.5 10L 18 16.5" stroke-dasharray="none"></path></g></g></g><g id="g-root-2.cu_sy_1qbcv2ckutzb6-stroke" data-item-order="-108842" transform="translate(74.96014404296875, 240.01953125)"><g id="2.cu_sy_1qbcv2ckutzb6-stroke" fill="none" stroke-linecap="round" stroke-linejoin="round" stroke-miterlimit="4" stroke="#3cc583" stroke-width="2"><g><path d="M 10 10.060807C 22.058304 31.945297 32.244202 56.385803 40.740692 82.905884L 41.017899 83.765595C 44.672104 91.25351 72.628204 96.979798 106.162399 96.979798C 139.481689 96.979798 167.103195 91.252503 171.038391 83.833985L 171.265198 83.136414C 179.784302 56.502808 190.005203 31.963394 202.113098 10L 201.764313 10.612702C 195.717102 18.729492 155.154602 24.979706 106.107697 24.979706C 56.941193 24.979706 16.210297 18.774094 10.316696 10.628495L 10 10.060807Z"></path></g></g></g><g id="g-root-2.line_sy_1qbcv2ckutzb7-stroke" data-item-order="-108837" transform="translate(249, 279)"><g id="2.line_sy_1qbcv2ckutzb7-stroke" fill="none" stroke-linecap="round" stroke-linejoin="round" stroke-miterlimit="4" stroke="#969696" stroke-width="2"><g><path d="M 112 10L 12 10"></path><path d="M 18 3.5L 11.5 10L 18 16.5" stroke-dasharray="none"></path></g></g></g><g id="g-root-1.cu_sy_1hfputgkuu03w-stroke" data-item-order="-108834" transform="translate(15, 147)"><g id="1.cu_sy_1hfputgkuu03w-stroke" fill="none" stroke-linecap="round" stroke-linejoin="round" stroke-miterlimit="4" stroke="#1eabda" stroke-width="2"><g><path d="M 166 10C 79.843582 10 10 18.058868 10 28C 10 37.941132 79.843582 46 166 46C 252.156418 46 322 37.941132 322 28C 322 18.058868 252.156418 10 166 10M 11.027405 30.074219C 30.834991 46.413513 52.862 71.289215 70.10379 103.506119C 75.617584 110.763321 108.929688 118.000519 165.989792 118.000519C 223.248993 118.000519 258.314087 110.388123 262.259491 102.96933C 280.650879 68.386719 304.786194 43.199326 320.95459 30.09642"></path></g></g></g><g id="g-root-1.line_sy_1czwcp0kuu0w5-stroke" data-item-order="-108829" transform="translate(289, 207)"><g id="1.line_sy_1czwcp0kuu0w5-stroke" fill="none" stroke-linecap="round" stroke-linejoin="round" stroke-miterlimit="4" stroke="#969696" stroke-width="2"><g><path d="M 72 10L 12 10"></path><path d="M 18 3.5L 11.5 10L 18 16.5" stroke-dasharray="none"></path></g></g></g><g id="g-root-tx_transfor_13z9q2skuiqyv-stroke" data-item-order="0" transform="translate(111, 39)"></g><g id="g-root-tx_youtubev_13z9q2skuiqyu-stroke" data-item-order="0" transform="translate(45, 99)"></g><g id="g-root-1_9pvokuiqdk-stroke" data-item-order="0" transform="translate(147.224365234375, 195.111328125)"><g id="1_9pvokuiqdk-stroke" fill="none" stroke-linecap="round" stroke-linejoin="round" stroke-miterlimit="4" stroke="#1eabda" stroke-width="2"><g><path d="M 22 56.285713L 32.765713 31.154285C 32.973331 30.656004 33.460194 30.331429 34 30.331429C 34.539806 30.331429 35.026669 30.656004 35.234287 31.154285L 46 56.285713M 26.834286 45.005714L 41.165714 45.005714M 11.714286 23.714287C 11.714286 17.086868 17.086868 11.714286 23.714287 11.714286M 11.714286 23.714287C 11.714286 17.086868 17.086868 11.714286 23.714287 11.714286M 20.285715 23.714287C 20.285715 21.820738 21.820738 20.285715 23.714287 20.285715M 20.285715 23.714287C 20.285715 21.820738 21.820738 20.285715 23.714287 20.285715M 44.285713 11.714286C 50.913132 11.714286 56.285717 17.086868 56.285717 23.714287M 44.285713 11.714286C 50.913132 11.714286 56.285717 17.086868 56.285717 23.714287M 44.285713 20.285715C 46.179264 20.285715 47.714287 21.820738 47.714287 23.714287M 44.285713 20.285715C 46.179264 20.285715 47.714287 21.820738 47.714287 23.714287"></path></g></g></g><g id="g-root-tx_extractt_18f3878kuiq6l-stroke" data-item-order="0" transform="translate(375, 195)"></g><g id="g-root-flip_1q7m6v8kuejgi-stroke" data-item-order="0" transform="translate(147.224365234375, 267.111328125)"><g id="flip_1q7m6v8kuejgi-stroke" fill="none" stroke-linecap="round" stroke-linejoin="round" stroke-miterlimit="4" stroke="#3cc583" stroke-width="2"><g><path d="M 45 45C 43.895432 45 43 45.895432 43 47L 43 57L 15 57C 13.895431 57 13 56.104568 13 55L 13 17C 13 15.895431 13.895431 15 15 15L 53 15C 54.104568 15 55 15.895431 55 17L 55 45ZM 55 45L 43 57M 19 11L 19 20M 29 11L 29 20M 39 11L 39 20M 49 11L 49 20"></path></g></g></g><g id="g-root-tx_summariz_18f3878kuiq6k-stroke" data-item-order="0" transform="translate(375.112060546875, 267)"></g><g id="g-root-chec_1usfeiskuwsni-stroke" data-item-order="0" transform="translate(147.224365234375, 339.111328125)"><g id="chec_1usfeiskuwsni-stroke" fill="none" stroke-linecap="round" stroke-linejoin="round" stroke-miterlimit="4" stroke="#92bd39" stroke-width="2"><g><path d="M 29.174 51L 13.174 51C 12.06943 51 11.174 50.104568 11.174 49L 11.174 17C 11.174 15.895431 12.06943 15 13.174 15L 41.174 15C 42.278568 15 43.174 15.895431 43.174 17L 43.174 27M 19.174 19.001999L 19.174 11.002M 27.174 19.001999L 27.174 11.002M 35.174 19.001999L 35.174 11.002M 33.174 45.001999C 33.174004 51.629417 38.546585 57.002003 45.174 57.002003C 51.801418 57.002003 57.174 51.629417 57.174 45.002003C 57.174 38.374584 51.801418 33.001999 45.174 33.001999C 38.546585 33.001999 33.174004 38.374584 33.174004 45.002003ZM 50.521999 41.512001L 44.722 49.259998C 44.460602 49.607647 44.06134 49.824909 43.627468 49.855598C 43.193596 49.886288 42.767727 49.72739 42.459999 49.419998L 39.459999 46.419998"></path></g></g></g><g id="g-root-tx_createst_1ha3rd0kuisjn-stroke" data-item-order="0" transform="translate(375.112060546875, 339)"></g><g id="g-root-1_1lyntj8kusjk4-stroke" data-item-order="0" transform="translate(147.224365234375, 411.111328125)"><g id="1_1lyntj8kusjk4-stroke" fill="none" stroke-linecap="round" stroke-linejoin="round" stroke-miterlimit="4" stroke="#e0cb15" stroke-width="2"><g><path d="M 11.5 20.5C 11.5 18.290861 13.290861 16.5 15.5 16.5L 52.5 16.5C 54.709141 16.5 56.5 18.290861 56.5 20.5L 56.5 47.5C 56.5 49.709141 54.709141 51.5 52.5 51.5L 15.5 51.5C 13.290861 51.5 11.5 49.709141 11.5 47.5L 11.5 20.5ZM 20 42L 20 26L 26 35.599998L 32 26L 32 42M 44 26L 44 42M 38 36L 44 42L 50 36"></path></g></g></g><g id="g-root-tx_convertt_1lpx9hgkuirre-stroke" data-item-order="0" transform="translate(375.112060546875, 411)"></g><g id="g-root-tx_userfrie_1ulk9qckuiqyp-stroke" data-item-order="0" transform="translate(57, 483)"></g></g></g></svg>